<svg width="146" height="137" viewBox="0 0 146 137" fill="none" xmlns="http://www.w3.org/2000/svg">
<g filter="url(#filter0_i_1_2115)">
<path fill-rule="evenodd" clip-rule="evenodd" d="M104.894 4.59204C106.802 5.0238 109.647 5.88273 111.216 6.50136C114.07 7.6265 118.595 10.0305 119.68 10.9986C119.997 11.2812 120.776 11.9074 121.412 12.3903C128.93 18.0992 134.587 27.8573 136.488 38.3949C137.206 42.3768 137.18 50.5845 136.438 54.1311C136.136 55.5735 135.838 56.8049 135.776 56.8672C135.714 56.9298 135.021 56.5475 134.236 56.0178C130.17 53.2738 125.862 51.5526 120.883 50.6829L118.537 50.2734L118.697 46.4C118.831 43.1898 118.421 40.6517 118.139 39.4407C116.666 33.1122 113.573 28.41 108.808 25.2539C104.347 22.2995 100.592 21.1835 95.1104 21.1835C89.746 21.1835 85.57 22.3716 80.326 25.39C78.7581 26.2922 78.0011 26.063 78.0011 26.063L68.2244 13.6898C68.2244 12.9978 73.2907 9.50598 76.62 7.90319C81.5935 5.509 84.5908 4.67531 91.8448 3.66918C94.3281 3.32462 101.548 3.83539 104.894 4.59204Z" fill="#9457F2"/>
<path d="M37.7945 64.6909V72.8534L35.6766 73.2193C31.0661 74.0159 26.6648 76.4202 23.2413 80.0117C19.7442 83.6805 18.3521 86.2435 17.4459 90.6821C16.7836 93.9264 16.9421 99.3816 17.7802 102.169C17.9766 102.821 18.4163 104.057 18.8303 104.847C13.3794 97.4702 2.14731 99.4372 3.10889 110.584C2.9915 110.301 2.87488 110.012 2.75865 109.717C0.636117 104.33 0.0206651 101.13 0.000513447 95.3774C-0.0176561 90.1392 0.442861 87.1556 1.9473 82.7668C7.04402 67.8952 21.1661 57.3074 36.886 56.5714L37.7945 56.5288V64.6909Z" fill="#9457F2"/>
<path d="M22.9508 38.6834C24.4073 29.7227 30.3825 20.9639 37.0312 18.0432C38.101 17.5733 38.7985 17.3565 39.6089 17.3006C29.5455 17.2004 25.0376 6.75119 34.3941 1.17688C31.9477 2.10923 28.7846 3.45083 27.4255 4.18356C18.4153 9.04143 10.5512 18.4516 7.32895 28.232C5.28239 34.4445 4.23153 41.6661 4.61045 46.9187C5.04718 52.9758 6.1314 59.0089 7.26882 61.7103L7.76204 62.8813L9.66523 60.6937C12.7177 57.1848 15.4448 55.1693 21.3139 52.0847C22.4589 51.4828 23.0833 50.9573 23.0023 50.6632C22.6287 49.3083 22.5924 40.8871 22.9508 38.6834Z" fill="#9457F2"/>
<path d="M106.167 136.38C100.745 137.517 91.8165 137.05 85.696 135.307C82.5564 134.413 77.8058 132.351 75.2614 130.777C72.7521 129.225 72.4623 128.88 73.2833 128.423C73.5423 128.279 75.7441 126.243 78.1758 123.899C80.6079 121.555 83.1355 119.139 83.7929 118.53L84.9884 117.423L87.407 118.291C90.99 119.577 94.0511 120.117 97.7933 120.123C102.701 120.132 106.295 119.438 110.669 117.462C97.1245 124.025 107.035 136.19 114.964 133.849C112.049 134.892 108.973 135.791 106.167 136.38Z" fill="#9457F2"/>
</g>
<path d="M55.7908 4.97236C53.8447 3.49775 49.3598 1.33141 46.9165 0.685904C44.561 0.0633424 39.204 -0.214007 37.3157 0.188576C36.8016 0.298215 35.7 0.679264 34.3942 1.1769C25.0377 6.75121 29.5456 17.2004 39.6089 17.3006C39.8399 17.2846 40.08 17.2818 40.3406 17.2898C40.5014 17.2948 40.6701 17.3039 40.8492 17.3167C44.5769 17.5832 47.6406 20.0932 48.3727 23.4804C48.6218 24.633 48.7334 36.9862 48.7334 63.3954V101.641L57.1159 93.4583L65.4983 85.2755L65.4574 52.328L65.4164 19.3804L64.7869 16.7197C63.7958 13.6899 61.0303 9.77319 58.9391 7.6757C58.0937 6.82758 55.8673 5.08146 55.7908 4.97236Z" fill="white"/>
<path d="M23.8843 111.234C30.38 117.54 39.7678 119.538 46.9692 116.147C49.6589 114.88 51.6705 113.192 59.5428 105.592C68.736 96.7173 75.3467 90.3756 79.7603 86.198C81.8557 84.2146 86.9845 79.3269 91.1575 75.3368C100.013 66.8697 101.7 65.3987 104.316 63.8681C109.134 61.049 112.221 60.315 118.302 60.5425C125.525 60.813 130.496 62.9819 135.776 68.167C139.27 71.5971 141.162 74.2575 142.916 78.2004C148.622 91.0326 146.288 106.665 136.931 118.279C134.889 120.814 129.561 126.042 127.816 127.222C127.09 127.714 125.752 128.615 124.843 129.225C122.557 130.758 118.908 132.436 114.964 133.849C107.035 136.19 97.1246 124.025 110.669 117.462C111.924 116.895 113.243 116.222 114.676 115.43C117.323 113.966 120.415 111.239 120.415 111.239C120.415 111.239 121.48 110.255 122.22 109.395C128 102.669 130.141 95.262 128.332 88.244C127.51 85.0509 126.636 83.3806 124.737 81.365C121.046 77.45 115.999 76.6855 111.299 79.3302C108.855 80.7048 104.888 85.1764 104.888 85.1764L97.6201 92.2249L83.9175 105.766C83.9175 105.766 80.1111 108.781 73.5212 115.276C62.7978 125.846 60.591 127.833 57.0956 130.067C52.7477 132.846 48.6933 134.208 42.7396 134.889C30.8214 136.253 17.7449 130.607 9.1154 120.371C6.38183 117.128 4.6771 114.364 3.10893 110.584C2.14735 99.4372 13.3794 97.4702 18.8303 104.847C20.0203 107.116 21.865 109.274 23.8843 111.234Z" fill="white"/>
<defs>
<filter id="filter0_i_1_2115" x="-1" y="1.17688" width="138.011" height="136.823" filterUnits="userSpaceOnUse" color-interpolation-filters="sRGB">
<feFlood flood-opacity="0" result="BackgroundImageFix"/>
<feBlend mode="normal" in="SourceGraphic" in2="BackgroundImageFix" result="shape"/>
<feColorMatrix in="SourceAlpha" type="matrix" values="0 0 0 0 0 0 0 0 0 0 0 0 0 0 0 0 0 0 127 0" result="hardAlpha"/>
<feOffset dx="-1" dy="1"/>
<feGaussianBlur stdDeviation="11.8"/>
<feComposite in2="hardAlpha" operator="arithmetic" k2="-1" k3="1"/>
<feColorMatrix type="matrix" values="0 0 0 0 0 0 0 0 0 0 0 0 0 0 0 0 0 0 0.23 0"/>
<feBlend mode="normal" in2="shape" result="effect1_innerShadow_1_2115"/>
</filter>
</defs>
</svg>
