<svg width="93" height="75" viewBox="0 0 93 75" fill="none" xmlns="http://www.w3.org/2000/svg">
<g clip-path="url(#clip0_15_47)">
<path d="M75.5625 29.4231V28.8462C75.5625 12.6923 62.775 0 46.5 0C31.9688 0 19.7625 10.3846 18.0187 24.8077C7.55625 28.2692 0 37.5 0 49.0385C0 63.4615 11.625 75 26.1562 75C36.0375 75 60.45 75 69.75 75C82.5375 75 93 64.6154 93 51.9231C93 40.9615 85.4437 32.3077 75.5625 29.4231Z" fill="url(#paint0_linear_15_47)"/>
<path d="M52.3123 46.1539V63.4615H40.6873V46.1539H23.2498L46.4998 23.0769L69.7498 46.1539H52.3123Z" fill="white"/>
</g>
<defs>
<linearGradient id="paint0_linear_15_47" x1="93" y1="-3.14321e-06" x2="-7.50961" y2="63.0237" gradientUnits="userSpaceOnUse">
<stop stop-color="#3A3A3A"/>
<stop offset="1" stop-color="#0F0F0F"/>
</linearGradient>
<clipPath id="clip0_15_47">
<rect width="93" height="75" fill="white"/>
</clipPath>
</defs>
</svg>
